<svg width="19" height="18" viewBox="0 0 19 18" fill="none" xmlns="http://www.w3.org/2000/svg">
<path d="M9.03436 0.618355L1.9809 3.30933C1.34676 3.55083 0.92627 4.17183 0.92627 4.86182V12.6277C0.92627 13.2556 1.27555 13.8283 1.82491 14.1077L8.87837 17.6957C9.33616 17.9303 9.87535 17.9303 10.3331 17.6957L17.3866 14.1077C17.9393 13.8283 18.2852 13.2522 18.2852 12.6277V4.86182C18.2852 4.17183 17.8647 3.55428 17.2306 3.31278L10.1772 0.621805C9.81091 0.476906 9.40399 0.476906 9.03436 0.618355ZM9.60745 2.76079L16.1183 5.24477V5.28272L9.60745 7.9737L3.09656 5.28272V5.24477L9.60745 2.76079ZM10.6926 15.0427V9.90568L16.1183 7.6632V12.2827L10.6926 15.0427Z" fill="#0066FF"/>
</svg>
