<svg width="16" height="17" viewBox="0 0 16 17" fill="none" xmlns="http://www.w3.org/2000/svg">
<g clip-path="url(#clip0_3_244)">
<path d="M12.4437 5.21735V4.21735C12.4437 2.01172 10.5639 0.217346 8.25326 0.217346C5.9426 0.217346 4.06278 2.01172 4.06278 4.21735V5.21735H0.919922V13.7173C0.919922 15.0981 2.0925 16.2173 3.53897 16.2173H12.9675C14.414 16.2173 15.5866 15.0981 15.5866 13.7173V5.21735H12.4437ZM6.15802 4.21735C6.15802 3.11453 7.09793 2.21735 8.25326 2.21735C9.40858 2.21735 10.3485 3.11453 10.3485 4.21735V5.21735H6.15802V4.21735ZM11.3961 7.96735C10.9622 7.96735 10.6104 7.63157 10.6104 7.21735C10.6104 6.80313 10.9622 6.46735 11.3961 6.46735C11.8301 6.46735 12.1818 6.80313 12.1818 7.21735C12.1818 7.63157 11.8301 7.96735 11.3961 7.96735ZM5.1104 7.96735C4.67645 7.96735 4.32468 7.63157 4.32468 7.21735C4.32468 6.80313 4.67645 6.46735 5.1104 6.46735C5.54434 6.46735 5.89611 6.80313 5.89611 7.21735C5.89611 7.63157 5.54434 7.96735 5.1104 7.96735Z" fill="#682EE6"/>
</g>
<defs>
<clipPath id="clip0_3_244">
<rect width="14.6667" height="16" fill="white" transform="translate(0.919922 0.217346)"/>
</clipPath>
</defs>
</svg>
