<svg width="17" height="17" viewBox="0 0 17 17" fill="none" xmlns="http://www.w3.org/2000/svg">
<g clip-path="url(#clip0_3_714)">
<path d="M15.9077 0.814404C15.8876 0.720888 15.8409 0.635161 15.7733 0.567528C15.7056 0.499895 15.6199 0.453234 15.5264 0.433154C14.5202 0.217529 13.733 0.217529 12.9486 0.217529C9.72359 0.217529 7.78922 1.94253 6.34578 4.21753H3.08953C2.81144 4.21776 2.53888 4.2953 2.30231 4.44148C2.06574 4.58767 1.87446 4.79674 1.74984 5.04534L0.205467 8.13284C0.148433 8.24722 0.121574 8.37427 0.127438 8.50194C0.133302 8.62961 0.171695 8.75367 0.238973 8.86233C0.306251 8.971 0.400182 9.06067 0.511851 9.12283C0.62352 9.185 0.749223 9.21759 0.877029 9.21753H4.11984L3.41765 9.91972C3.23016 10.1072 3.12484 10.3616 3.12484 10.6267C3.12484 10.8919 3.23016 11.1462 3.41765 11.3338L5.00828 12.9247C5.10114 13.0176 5.21139 13.0913 5.33273 13.1415C5.45407 13.1918 5.58413 13.2177 5.71547 13.2177C5.84681 13.2177 5.97686 13.1918 6.0982 13.1415C6.21954 13.0913 6.32979 13.0176 6.42265 12.9247L7.12484 12.2225V15.4675C7.1248 15.5953 7.1574 15.7209 7.21955 15.8326C7.2817 15.9442 7.37134 16.0381 7.47996 16.1054C7.58858 16.1726 7.71258 16.2111 7.84021 16.217C7.96783 16.2229 8.09485 16.1961 8.20922 16.1391L11.2936 14.5957C11.5426 14.4713 11.752 14.2799 11.8983 14.0431C12.0446 13.8063 12.1219 13.5334 12.1217 13.255V9.99222C14.3902 8.54534 16.1217 6.60472 16.1217 3.39565C16.1248 2.60815 16.1248 1.82065 15.9077 0.814404ZM12.1248 5.46753C11.8776 5.46753 11.6359 5.39422 11.4304 5.25687C11.2248 5.11951 11.0646 4.92429 10.97 4.69588C10.8754 4.46748 10.8506 4.21614 10.8989 3.97367C10.9471 3.73119 11.0661 3.50846 11.241 3.33365C11.4158 3.15883 11.6385 3.03978 11.881 2.99155C12.1235 2.94332 12.3748 2.96807 12.6032 3.06268C12.8316 3.15729 13.0268 3.31751 13.1642 3.52307C13.3015 3.72863 13.3748 3.9703 13.3748 4.21753C13.3748 4.54905 13.2431 4.86699 13.0087 5.10141C12.7743 5.33583 12.4564 5.46753 12.1248 5.46753Z" fill="#682EE6"/>
</g>
<defs>
<clipPath id="clip0_3_714">
<rect width="16" height="16" fill="white" transform="translate(0.124023 0.217529)"/>
</clipPath>
</defs>
</svg>
