<svg width="17" height="17" viewBox="0 0 17 17" fill="none" xmlns="http://www.w3.org/2000/svg">
<g clip-path="url(#clip0_3_299)">
<path d="M16.2812 12.2117H2.78125V2.71167C2.78125 2.43542 2.5575 2.21167 2.28125 2.21167H1.28125C1.005 2.21167 0.78125 2.43542 0.78125 2.71167V13.2117C0.78125 13.7639 1.22906 14.2117 1.78125 14.2117H16.2812C16.5575 14.2117 16.7812 13.9879 16.7812 13.7117V12.7117C16.7812 12.4354 16.5575 12.2117 16.2812 12.2117ZM15.2812 3.21167H11.5919C10.9237 3.21167 10.5891 4.01948 11.0616 4.49198L12.0741 5.50448L9.78125 7.79761L7.48844 5.5048C7.09781 5.11417 6.46469 5.11417 6.07438 5.5048L3.92781 7.65136C3.7325 7.84667 3.7325 8.16323 3.92781 8.35855L4.63469 9.06542C4.83 9.26073 5.14656 9.26073 5.34188 9.06542L6.78125 7.62573L9.07406 9.91854C9.46469 10.3092 10.0978 10.3092 10.4881 9.91854L13.4881 6.91854L14.5006 7.93105C14.9731 8.40354 15.7809 8.06886 15.7809 7.40073V3.71167C15.7812 3.43542 15.5575 3.21167 15.2812 3.21167Z" fill="#682EE6"/>
</g>
<defs>
<clipPath id="clip0_3_299">
<rect width="16" height="16" fill="white" transform="translate(0.78125 0.21167)"/>
</clipPath>
</defs>
</svg>
