<svg width="50" height="51" viewBox="0 0 50 51" fill="none" xmlns="http://www.w3.org/2000/svg">
<rect y="0.953125" width="50" height="50" rx="3.75" fill="#0066FF"/>
<g clip-path="url(#clip0_3_874)">
<path d="M31.1617 19.3617C29.4826 17.7895 27.3036 16.9276 24.9918 16.9297C20.8315 16.9333 17.2398 19.7859 16.2482 23.7429C16.176 24.031 15.9194 24.2344 15.6224 24.2344H12.5446C12.1419 24.2344 11.8359 23.8688 11.9104 23.473C13.0726 17.3016 18.4909 12.6328 25 12.6328C28.569 12.6328 31.8101 14.0366 34.2015 16.3219L36.1198 14.4037C36.9318 13.5916 38.3203 14.1667 38.3203 15.3152V22.5156C38.3203 23.2276 37.7432 23.8047 37.0312 23.8047H29.8308C28.6824 23.8047 28.1072 22.4162 28.9193 21.6041L31.1617 19.3617ZM12.9688 28.1016H20.1692C21.3176 28.1016 21.8928 29.49 21.0807 30.3022L18.8383 32.5446C20.5174 34.1169 22.6966 34.9787 25.0084 34.9766C29.1666 34.9729 32.7597 32.1222 33.7518 28.1634C33.824 27.8754 34.0806 27.672 34.3776 27.672H37.4555C37.8582 27.672 38.1641 28.0376 38.0896 28.4334C36.9274 34.6047 31.5091 39.2734 25 39.2734C21.431 39.2734 18.1899 37.8696 15.7985 35.5843L13.8802 37.5026C13.0682 38.3146 11.6797 37.7395 11.6797 36.5911V29.3906C11.6797 28.6787 12.2568 28.1016 12.9688 28.1016Z" fill="white"/>
</g>
<defs>
<clipPath id="clip0_3_874">
<rect width="27.5" height="27.5" fill="white" transform="translate(11.25 12.2031)"/>
</clipPath>
</defs>
</svg>
