<svg width="49" height="50" viewBox="0 0 49 50" fill="none" xmlns="http://www.w3.org/2000/svg">
<rect y="0.953125" width="48.5" height="48.5" rx="3.75" fill="#0066FF"/>
<g clip-path="url(#clip0_3_883)">
<path d="M30.3167 12.2031H18.1833C16.7479 12.2031 15.5833 13.2949 15.5833 14.6406V35.7656C15.5833 37.1113 16.7479 38.2031 18.1833 38.2031H30.3167C31.7521 38.2031 32.9167 37.1113 32.9167 35.7656V14.6406C32.9167 13.2949 31.7521 12.2031 30.3167 12.2031ZM24.25 36.5781C23.2913 36.5781 22.5167 35.852 22.5167 34.9531C22.5167 34.0543 23.2913 33.3281 24.25 33.3281C25.2088 33.3281 25.9833 34.0543 25.9833 34.9531C25.9833 35.852 25.2088 36.5781 24.25 36.5781ZM30.3167 31.0938C30.3167 31.4289 30.0242 31.7031 29.6667 31.7031H18.8333C18.4758 31.7031 18.1833 31.4289 18.1833 31.0938V15.25C18.1833 14.9148 18.4758 14.6406 18.8333 14.6406H29.6667C30.0242 14.6406 30.3167 14.9148 30.3167 15.25V31.0938Z" fill="white"/>
</g>
<defs>
<clipPath id="clip0_3_883">
<rect width="26" height="26" fill="white" transform="translate(11.25 12.2031)"/>
</clipPath>
</defs>
</svg>
