<svg width="51" height="52" viewBox="0 0 51 52" fill="none" xmlns="http://www.w3.org/2000/svg">
<rect y="0.953125" width="50.5" height="50.5" rx="3.75" fill="#0066FF"/>
<path d="M25.2531 19.0243C21.2803 19.0243 18.0759 22.2295 18.0759 26.2031C18.0759 30.1768 21.2803 33.382 25.2531 33.382C29.2259 33.382 32.4304 30.1768 32.4304 26.2031C32.4304 22.2295 29.2259 19.0243 25.2531 19.0243ZM25.2531 30.8703C22.6858 30.8703 20.587 28.7773 20.587 26.2031C20.587 23.629 22.6796 21.5359 25.2531 21.5359C27.8267 21.5359 29.9193 23.629 29.9193 26.2031C29.9193 28.7773 27.8204 30.8703 25.2531 30.8703ZM34.398 18.7306C34.398 19.6616 33.6484 20.4051 32.724 20.4051C31.7932 20.4051 31.0499 19.6553 31.0499 18.7306C31.0499 17.8059 31.7995 17.0562 32.724 17.0562C33.6484 17.0562 34.398 17.8059 34.398 18.7306ZM39.1516 20.4301C39.0454 18.1871 38.5332 16.2002 36.8904 14.5633C35.2538 12.9263 33.2674 12.414 31.0249 12.3015C28.7137 12.1703 21.7863 12.1703 19.4751 12.3015C17.2388 12.4077 15.2525 12.9201 13.6096 14.557C11.9668 16.194 11.4608 18.1808 11.3484 20.4238C11.2172 22.7355 11.2172 29.6645 11.3484 31.9762C11.4546 34.2192 11.9668 36.206 13.6096 37.843C15.2525 39.4799 17.2326 39.9923 19.4751 40.1047C21.7863 40.2359 28.7137 40.2359 31.0249 40.1047C33.2674 39.9985 35.2538 39.4862 36.8904 37.843C38.527 36.206 39.0392 34.2192 39.1516 31.9762C39.2828 29.6645 39.2828 22.7418 39.1516 20.4301ZM36.1658 34.4566C35.6786 35.6812 34.7353 36.6246 33.5048 37.1182C31.662 37.8492 27.2895 37.6805 25.2531 37.6805C23.2168 37.6805 18.838 37.843 17.0015 37.1182C15.7772 36.6309 14.8339 35.6874 14.3405 34.4566C13.6096 32.6135 13.7783 28.2399 13.7783 26.2031C13.7783 24.1663 13.6159 19.7865 14.3405 17.9496C14.8277 16.725 15.7709 15.7816 17.0015 15.288C18.8442 14.557 23.2168 14.7257 25.2531 14.7257C27.2895 14.7257 31.6683 14.5633 33.5048 15.288C34.7291 15.7754 35.6723 16.7188 36.1658 17.9496C36.8966 19.7928 36.728 24.1663 36.728 26.2031C36.728 28.2399 36.8966 32.6197 36.1658 34.4566Z" fill="white"/>
</svg>
