<svg width="51" height="52" viewBox="0 0 51 52" fill="none" xmlns="http://www.w3.org/2000/svg">
<rect y="0.953125" width="50.5" height="50.5" rx="3.75" fill="#0066FF"/>
<g clip-path="url(#clip0_3_901)">
<path d="M27.4375 12.2031H37.9375C38.6624 12.2031 39.25 12.8747 39.25 13.7031V23.7031C39.25 24.5316 38.6624 25.2031 37.9375 25.2031H27.4375C26.7126 25.2031 26.125 24.5316 26.125 23.7031V13.7031C26.125 12.8747 26.7126 12.2031 27.4375 12.2031ZM23.0625 12.2031H12.5625C11.8376 12.2031 11.25 12.8747 11.25 13.7031V23.7031C11.25 24.5316 11.8376 25.2031 12.5625 25.2031H23.0625C23.7874 25.2031 24.375 24.5316 24.375 23.7031V13.7031C24.375 12.8747 23.7874 12.2031 23.0625 12.2031ZM11.25 28.7031V38.7031C11.25 39.5316 11.8376 40.2031 12.5625 40.2031H23.0625C23.7874 40.2031 24.375 39.5316 24.375 38.7031V28.7031C24.375 27.8747 23.7874 27.2031 23.0625 27.2031H12.5625C11.8376 27.2031 11.25 27.8747 11.25 28.7031ZM27.4375 40.2031H37.9375C38.6624 40.2031 39.25 39.5316 39.25 38.7031V28.7031C39.25 27.8747 38.6624 27.2031 37.9375 27.2031H27.4375C26.7126 27.2031 26.125 27.8747 26.125 28.7031V38.7031C26.125 39.5316 26.7126 40.2031 27.4375 40.2031Z" fill="white"/>
</g>
<defs>
<clipPath id="clip0_3_901">
<rect width="28" height="28" fill="white" transform="translate(11.25 12.2031)"/>
</clipPath>
</defs>
</svg>
