<svg width="51" height="51" viewBox="0 0 51 51" fill="none" xmlns="http://www.w3.org/2000/svg">
<rect y="0.453125" width="50.5" height="50.5" rx="3.75" fill="#0066FF"/>
<g clip-path="url(#clip0_3_911)">
<path d="M25.25 11.7031C17.5178 11.7031 11.25 17.9709 11.25 25.7031C11.25 33.4353 17.5178 39.7031 25.25 39.7031C32.9822 39.7031 39.25 33.4353 39.25 25.7031C39.25 17.9709 32.9822 11.7031 25.25 11.7031ZM29.8954 31.8902C29.6752 32.1093 29.4444 32.339 29.2569 32.527C29.0881 32.6964 28.969 32.9052 28.9086 33.1316C28.8234 33.4511 28.7545 33.774 28.6394 34.0839L27.6577 36.7287C26.8809 36.898 26.077 36.9934 25.25 36.9934V35.4478C25.3454 34.7354 24.8187 33.4009 23.9725 32.5547C23.6338 32.2159 23.4435 31.7564 23.4435 31.2772V29.4701C23.4435 28.813 23.0896 28.209 22.5144 27.8912C21.7031 27.4424 20.5493 26.8152 19.759 26.4172C19.1109 26.0909 18.5114 25.6755 17.9723 25.1894L17.9271 25.1488C17.5416 24.8008 17.1993 24.4077 16.9076 23.978C16.3781 23.2006 15.5155 21.922 14.9549 21.091C16.1105 18.5225 18.193 16.4597 20.7807 15.3392L22.1361 16.0172C22.7368 16.3175 23.4435 15.8811 23.4435 15.2093V14.5714C23.8946 14.4986 24.3535 14.4523 24.8204 14.4348L26.418 16.0324C26.7708 16.3852 26.7708 16.9571 26.418 17.3099L26.1532 17.5741L25.5695 18.1578C25.3934 18.3339 25.3934 18.6201 25.5695 18.7963L25.8343 19.061C26.0104 19.2372 26.0104 19.5234 25.8343 19.6995L25.3827 20.1511C25.2979 20.2357 25.1829 20.2832 25.0631 20.2832H24.5556C24.4382 20.2832 24.3253 20.3289 24.2406 20.4114L23.6806 20.9561C23.612 21.023 23.5664 21.1099 23.5503 21.2043C23.5343 21.2988 23.5487 21.3959 23.5915 21.4817L24.4715 23.2424C24.6217 23.5427 24.4032 23.8961 24.0679 23.8961H23.7495C23.6406 23.8961 23.5356 23.8566 23.4537 23.7855L22.9298 23.3305C22.8113 23.2276 22.668 23.1574 22.5141 23.1267C22.3602 23.096 22.2009 23.1059 22.052 23.1555L20.2924 23.742C20.1581 23.7868 20.0412 23.8727 19.9585 23.9876C19.8757 24.1025 19.8312 24.2405 19.8312 24.3822C19.8312 24.6379 19.9757 24.871 20.2044 24.9856L20.8298 25.2984C21.361 25.5643 21.947 25.7026 22.5409 25.7026C23.1348 25.7026 23.8161 27.2431 24.3473 27.509H28.1155C28.5948 27.509 29.0537 27.6993 29.393 28.038L30.1658 28.8108C30.4887 29.1338 30.67 29.5718 30.6699 30.0284C30.6698 30.3745 30.6013 30.7171 30.4684 31.0366C30.3355 31.3561 30.1408 31.6462 29.8954 31.8902ZM34.7903 26.7334C34.4635 26.6515 34.1784 26.4511 33.9915 26.1705L32.9765 24.648C32.828 24.4256 32.7488 24.1641 32.7488 23.8967C32.7488 23.6292 32.828 23.3677 32.9765 23.1453L34.0824 21.4868C34.2134 21.2909 34.3929 21.1317 34.604 21.0267L35.3368 20.6603C36.1 22.18 36.5403 23.8893 36.5403 25.7031C36.5403 26.1926 36.4985 26.6718 36.4376 27.1449L34.7903 26.7334Z" fill="white"/>
</g>
<defs>
<clipPath id="clip0_3_911">
<rect width="28" height="28" fill="white" transform="translate(11.25 11.7031)"/>
</clipPath>
</defs>
</svg>
