<svg width="51" height="51" viewBox="0 0 51 51" fill="none" xmlns="http://www.w3.org/2000/svg">
<rect y="0.453125" width="50.5" height="50.5" rx="3.75" fill="#0066FF"/>
<g clip-path="url(#clip0_3_930)">
<path d="M38.375 32.7031H14.75V16.0781C14.75 15.5947 14.3584 15.2031 13.875 15.2031H12.125C11.6416 15.2031 11.25 15.5947 11.25 16.0781V34.4531C11.25 35.4195 12.0337 36.2031 13 36.2031H38.375C38.8584 36.2031 39.25 35.8116 39.25 35.3281V33.5781C39.25 33.0947 38.8584 32.7031 38.375 32.7031ZM36.625 16.9531H30.1686C28.9994 16.9531 28.4137 18.3668 29.2405 19.1937L31.0124 20.9655L27 24.9785L22.9876 20.9661C22.304 20.2825 21.196 20.2825 20.513 20.9661L16.7565 24.7226C16.4147 25.0644 16.4147 25.6184 16.7565 25.9602L17.9935 27.1972C18.3353 27.539 18.8893 27.539 19.2311 27.1972L21.75 24.6777L25.7624 28.6902C26.446 29.3737 27.554 29.3737 28.237 28.6902L33.487 23.4402L35.2589 25.212C36.0858 26.0389 37.4995 25.4532 37.4995 24.284V17.8281C37.5 17.3447 37.1084 16.9531 36.625 16.9531Z" fill="white"/>
</g>
<defs>
<clipPath id="clip0_3_930">
<rect width="28" height="28" fill="white" transform="translate(11.25 11.7031)"/>
</clipPath>
</defs>
</svg>
