<svg width="51" height="51" viewBox="0 0 51 51" fill="none" xmlns="http://www.w3.org/2000/svg">
<rect y="0.453125" width="50.5" height="50.5" rx="3.75" fill="#0066FF"/>
<g clip-path="url(#clip0_3_939)">
<path d="M23.452 38.4056L20.7835 37.5255C20.5035 37.436 20.346 37.1029 20.4248 36.7847L26.3962 13.4065C26.4749 13.0883 26.768 12.9093 27.048 12.9988L29.7165 13.8789C29.9965 13.9684 30.154 14.3015 30.0752 14.6197L24.1038 37.9979C24.0207 38.3161 23.732 38.5 23.452 38.4056ZM18.4649 32.827L20.3679 30.52C20.5691 30.2764 20.556 29.8886 20.3329 29.6649L16.3694 25.7022L20.3329 21.7396C20.556 21.5158 20.5735 21.128 20.3679 20.8844L18.4649 18.5774C18.268 18.3387 17.9356 18.3238 17.7212 18.5525L11.4173 25.2647C11.1942 25.4984 11.1942 25.9011 11.4173 26.1348L17.7212 32.8519C17.9356 33.0806 18.268 33.0707 18.4649 32.827ZM32.7788 32.8569L39.0827 26.1397C39.3058 25.9061 39.3058 25.5033 39.0827 25.2697L32.7788 18.5476C32.5688 18.3238 32.2363 18.3338 32.0351 18.5724L30.1321 20.8794C29.9309 21.123 29.944 21.5108 30.1671 21.7346L34.1306 25.7022L30.1671 29.6649C29.944 29.8886 29.9265 30.2764 30.1321 30.52L32.0351 32.827C32.232 33.0707 32.5644 33.0806 32.7788 32.8569Z" fill="white"/>
</g>
<defs>
<clipPath id="clip0_3_939">
<rect width="28" height="28" fill="white" transform="translate(11.25 11.7031)"/>
</clipPath>
</defs>
</svg>
