<svg width="30" height="31" viewBox="0 0 30 31" fill="none" xmlns="http://www.w3.org/2000/svg">
<path d="M6.4 9.52681H1.6C0.716344 9.52681 0 10.1735 0 10.9713V21.0824C0 21.8801 0.716344 22.5268 1.6 22.5268H6.4C7.28366 22.5268 8 21.8801 8 21.0824V10.9713C8 10.1735 7.28366 9.52681 6.4 9.52681Z" fill="white"/>
<path d="M28.4 9.52669H23.6C22.7163 9.52669 22 10.1734 22 10.9711V21.0822C22 21.88 22.7163 22.5267 23.6 22.5267H28.4C29.2837 22.5267 30 21.88 30 21.0822V10.9711C30 10.1734 29.2837 9.52669 28.4 9.52669Z" fill="white"/>
<path d="M19.5 6.52669H10.5C9.67157 6.52669 9 7.19826 9 8.02669V23.0267C9 23.8551 9.67157 24.5267 10.5 24.5267H19.5C20.3284 24.5267 21 23.8551 21 23.0267V8.02669C21 7.19826 20.3284 6.52669 19.5 6.52669Z" fill="white"/>
</svg>
