<svg width="18" height="19" viewBox="0 0 18 19" fill="none" xmlns="http://www.w3.org/2000/svg">
<rect y="0.526611" width="18" height="18" rx="9" fill="#0066FF"/>
<path d="M9.00305 4.81541V5.42415C9.00305 5.94797 8.90496 6.03289 8.56674 6.21704L5.41553 7.8168V7.88762L8.55244 9.45918C8.90496 9.64312 9.00305 9.71404 9.00305 10.2521V10.9315C9.00305 11.3562 8.86204 11.4978 8.49624 11.2997L3.75511 8.6945C3.47412 8.53887 3.375 8.42554 3.375 8.10007V7.64696C3.375 7.32129 3.47412 7.19386 3.75511 7.03822L8.49624 4.44723C8.86204 4.24908 9.00305 4.39061 9.00305 4.81541Z" fill="white"/>
<path d="M9.50379 7.05459L14.2306 9.64548C14.5259 9.80122 14.625 9.91444 14.625 10.24V10.6931C14.625 11.0329 14.5259 11.1461 14.2306 11.3019L9.50379 13.8928C9.12368 14.091 8.99698 13.9495 8.99698 13.5247V12.9159C8.99698 12.3921 9.09507 12.3071 9.43329 12.1373L12.5845 10.5374V10.4525L9.44759 8.88091C9.09507 8.71107 8.99698 8.62605 8.99698 8.08802V7.40847C8.99698 6.98367 9.12368 6.84224 9.50379 7.05459Z" fill="white"/>
</svg>
