<svg width="17" height="16" viewBox="0 0 17 16" fill="none" xmlns="http://www.w3.org/2000/svg">
<path d="M14.7219 9.59604C14.7219 9.59604 12.9441 12.2281 12.9441 13.2324C12.9441 14.2367 13.7402 15.0506 14.7219 15.0506C15.7036 15.0506 16.4997 14.2367 16.4997 13.2324C16.4997 12.2281 14.7219 9.59604 14.7219 9.59604ZM14.4616 6.6716L8.69243 0.77132C8.51882 0.593763 8.29131 0.505127 8.06381 0.505127C7.83631 0.505127 7.60881 0.593763 7.43548 0.77132L5.16936 3.08893L2.77546 0.640354C2.60185 0.462797 2.32046 0.462797 2.14712 0.640354L1.51878 1.28297C1.34545 1.46052 1.34545 1.74831 1.51878 1.92558L3.91296 4.37388L1.28073 7.06592C0.239335 8.13069 0.239335 9.8574 1.28073 10.9225L4.53602 14.2517C5.05658 14.7841 5.73908 15.0506 6.42131 15.0506C7.10381 15.0506 7.78603 14.7844 8.30659 14.2517L14.4613 7.95712C14.8086 7.602 14.8086 7.02672 14.4616 6.6716ZM11.2333 8.6878H2.33101C2.36879 8.57871 2.43018 8.46109 2.5374 8.35172L2.90268 7.97814L5.16963 5.65967L6.79742 7.32444C7.14437 7.67927 7.70715 7.67927 8.05409 7.32444C8.40104 6.96961 8.40104 6.39405 8.05409 6.03922L6.42631 4.37444L8.06381 2.69973L12.5761 7.3145L11.2333 8.6878Z" fill="#0066FF"/>
</svg>
