<svg width="16" height="17" viewBox="0 0 16 17" fill="none" xmlns="http://www.w3.org/2000/svg">
<g clip-path="url(#clip0_10_2500)">
<path d="M0 15.2778C0 16.106 0.767857 16.7778 1.71429 16.7778H14.2857C15.2321 16.7778 16 16.106 16 15.2778V6.77783H0V15.2778ZM11.4286 9.15283C11.4286 8.94658 11.6214 8.77783 11.8571 8.77783H13.2857C13.5214 8.77783 13.7143 8.94658 13.7143 9.15283V10.4028C13.7143 10.6091 13.5214 10.7778 13.2857 10.7778H11.8571C11.6214 10.7778 11.4286 10.6091 11.4286 10.4028V9.15283ZM11.4286 13.1528C11.4286 12.9466 11.6214 12.7778 11.8571 12.7778H13.2857C13.5214 12.7778 13.7143 12.9466 13.7143 13.1528V14.4028C13.7143 14.6091 13.5214 14.7778 13.2857 14.7778H11.8571C11.6214 14.7778 11.4286 14.6091 11.4286 14.4028V13.1528ZM6.85714 9.15283C6.85714 8.94658 7.05 8.77783 7.28571 8.77783H8.71429C8.95 8.77783 9.14286 8.94658 9.14286 9.15283V10.4028C9.14286 10.6091 8.95 10.7778 8.71429 10.7778H7.28571C7.05 10.7778 6.85714 10.6091 6.85714 10.4028V9.15283ZM6.85714 13.1528C6.85714 12.9466 7.05 12.7778 7.28571 12.7778H8.71429C8.95 12.7778 9.14286 12.9466 9.14286 13.1528V14.4028C9.14286 14.6091 8.95 14.7778 8.71429 14.7778H7.28571C7.05 14.7778 6.85714 14.6091 6.85714 14.4028V13.1528ZM2.28571 9.15283C2.28571 8.94658 2.47857 8.77783 2.71429 8.77783H4.14286C4.37857 8.77783 4.57143 8.94658 4.57143 9.15283V10.4028C4.57143 10.6091 4.37857 10.7778 4.14286 10.7778H2.71429C2.47857 10.7778 2.28571 10.6091 2.28571 10.4028V9.15283ZM2.28571 13.1528C2.28571 12.9466 2.47857 12.7778 2.71429 12.7778H4.14286C4.37857 12.7778 4.57143 12.9466 4.57143 13.1528V14.4028C4.57143 14.6091 4.37857 14.7778 4.14286 14.7778H2.71429C2.47857 14.7778 2.28571 14.6091 2.28571 14.4028V13.1528ZM14.2857 2.77783H12.5714V1.27783C12.5714 1.00283 12.3143 0.777832 12 0.777832H10.8571C10.5429 0.777832 10.2857 1.00283 10.2857 1.27783V2.77783H5.71429V1.27783C5.71429 1.00283 5.45714 0.777832 5.14286 0.777832H4C3.68571 0.777832 3.42857 1.00283 3.42857 1.27783V2.77783H1.71429C0.767857 2.77783 0 3.44971 0 4.27783V5.77783H16V4.27783C16 3.44971 15.2321 2.77783 14.2857 2.77783Z" fill="black"/>
</g>
<defs>
<clipPath id="clip0_10_2500">
<rect width="16" height="16" fill="white" transform="translate(0 0.777832)"/>
</clipPath>
</defs>
</svg>
