<svg width="16" height="17" viewBox="0 0 16 17" fill="none" xmlns="http://www.w3.org/2000/svg">
<g clip-path="url(#clip0_10_2504)">
<path d="M14.2219 10.596C14.2219 10.596 12.4441 13.2281 12.4441 14.2324C12.4441 15.2367 13.2402 16.0506 14.2219 16.0506C15.2036 16.0506 15.9997 15.2367 15.9997 14.2324C15.9997 13.2281 14.2219 10.596 14.2219 10.596ZM13.9616 7.6716L8.19242 1.77132C8.01881 1.59376 7.79131 1.50513 7.56381 1.50513C7.33631 1.50513 7.10881 1.59376 6.93547 1.77132L4.66935 4.08893L2.27545 1.64035C2.10184 1.4628 1.82045 1.4628 1.64712 1.64035L1.01878 2.28297C0.845447 2.46052 0.845447 2.74831 1.01878 2.92558L3.41296 5.37388L0.780725 8.06592C-0.260669 9.13069 -0.260669 10.8574 0.780725 11.9225L4.03602 15.2517C4.55657 15.7841 5.23908 16.0506 5.9213 16.0506C6.60381 16.0506 7.28603 15.7844 7.80659 15.2517L13.9613 8.95712C14.3086 8.602 14.3086 8.02672 13.9616 7.6716ZM10.7333 9.6878H1.83101C1.86878 9.57871 1.93017 9.46109 2.0374 9.35172L2.40268 8.97814L4.66963 6.65967L6.29742 8.32444C6.64436 8.67927 7.20714 8.67927 7.55409 8.32444C7.90103 7.96961 7.90103 7.39405 7.55409 7.03922L5.9263 5.37444L7.56381 3.69973L12.0761 8.3145L10.7333 9.6878Z" fill="black"/>
</g>
<defs>
<clipPath id="clip0_10_2504">
<rect width="16" height="16" fill="white" transform="translate(0 0.777832)"/>
</clipPath>
</defs>
</svg>
