<svg width="16" height="17" viewBox="0 0 16 17" fill="none" xmlns="http://www.w3.org/2000/svg">
<g clip-path="url(#clip0_10_2508)">
<path d="M8.00179 4.67563C5.73162 4.67563 3.9005 6.50716 3.9005 8.77783C3.9005 11.0485 5.73162 12.88 8.00179 12.88C10.2719 12.88 12.1031 11.0485 12.1031 8.77783C12.1031 6.50716 10.2719 4.67563 8.00179 4.67563ZM8.00179 11.4448C6.53475 11.4448 5.33542 10.2488 5.33542 8.77783C5.33542 7.3069 6.53118 6.11087 8.00179 6.11087C9.47239 6.11087 10.6682 7.3069 10.6682 8.77783C10.6682 10.2488 9.46882 11.4448 8.00179 11.4448ZM13.2274 4.50783C13.2274 5.0398 12.7991 5.46466 12.2708 5.46466C11.739 5.46466 11.3142 5.03623 11.3142 4.50783C11.3142 3.97944 11.7426 3.55101 12.2708 3.55101C12.7991 3.55101 13.2274 3.97944 13.2274 4.50783ZM15.9438 5.47894C15.8831 4.19722 15.5904 3.06189 14.6516 2.12649C13.7165 1.19109 12.5814 0.898327 11.2999 0.834063C9.97925 0.759088 6.02075 0.759088 4.70006 0.834063C3.4222 0.894757 2.28712 1.18752 1.34835 2.12292C0.409593 3.05832 0.120468 4.19365 0.0562186 5.47537C-0.0187395 6.79635 -0.0187395 10.7557 0.0562186 12.0767C0.116899 13.3584 0.409593 14.4938 1.34835 15.4292C2.28712 16.3646 3.41863 16.6573 4.70006 16.7216C6.02075 16.7966 9.97925 16.7966 11.2999 16.7216C12.5814 16.6609 13.7165 16.3681 14.6516 15.4292C15.5868 14.4938 15.8795 13.3584 15.9438 12.0767C16.0187 10.7557 16.0187 6.79992 15.9438 5.47894ZM14.2376 13.4941C13.9592 14.1939 13.4202 14.733 12.717 15.015C11.664 15.4327 9.16542 15.3364 8.00179 15.3364C6.83815 15.3364 4.33597 15.4292 3.28656 15.015C2.58695 14.7366 2.04796 14.1974 1.76598 13.4941C1.34835 12.4409 1.44473 9.94173 1.44473 8.77783C1.44473 7.61394 1.35192 5.1112 1.76598 4.06155C2.04439 3.36179 2.58338 2.82268 3.28656 2.54063C4.33954 2.12292 6.83815 2.21931 8.00179 2.21931C9.16542 2.21931 11.6676 2.12649 12.717 2.54063C13.4166 2.81911 13.9556 3.35822 14.2376 4.06155C14.6552 5.11477 14.5588 7.61394 14.5588 8.77783C14.5588 9.94173 14.6552 12.4445 14.2376 13.4941Z" fill="black"/>
</g>
<defs>
<clipPath id="clip0_10_2508">
<rect width="16" height="16" fill="white" transform="translate(0 0.777832)"/>
</clipPath>
</defs>
</svg>
