<svg width="16" height="17" viewBox="0 0 16 17" fill="none" xmlns="http://www.w3.org/2000/svg">
<g clip-path="url(#clip0_10_2513)">
<path d="M9.25032 1.77539H15.2503C15.6645 1.77539 16.0003 2.11117 16.0003 2.52539V7.52539C16.0003 7.93961 15.6645 8.27539 15.2503 8.27539H9.25032C8.83611 8.27539 8.50032 7.93961 8.50032 7.52539V2.52539C8.50032 2.11117 8.83611 1.77539 9.25032 1.77539ZM6.75032 1.77539H0.750324C0.336105 1.77539 0.000324249 2.11117 0.000324249 2.52539V7.52539C0.000324249 7.93961 0.336105 8.27539 0.750324 8.27539H6.75032C7.16454 8.27539 7.50032 7.93961 7.50032 7.52539V2.52539C7.50032 2.11117 7.16454 1.77539 6.75032 1.77539ZM0.000324249 10.0254V15.0254C0.000324249 15.4396 0.336105 15.7754 0.750324 15.7754H6.75032C7.16454 15.7754 7.50032 15.4396 7.50032 15.0254V10.0254C7.50032 9.61117 7.16454 9.27539 6.75032 9.27539H0.750324C0.336105 9.27539 0.000324249 9.61117 0.000324249 10.0254ZM9.25032 15.7754H15.2503C15.6645 15.7754 16.0003 15.4396 16.0003 15.0254V10.0254C16.0003 9.61117 15.6645 9.27539 15.2503 9.27539H9.25032C8.83611 9.27539 8.50032 9.61117 8.50032 10.0254V15.0254C8.50032 15.4396 8.83611 15.7754 9.25032 15.7754Z" fill="black"/>
</g>
<defs>
<clipPath id="clip0_10_2513">
<rect width="16" height="16" fill="white" transform="translate(0 0.777832)"/>
</clipPath>
</defs>
</svg>
