<svg width="16" height="16" viewBox="0 0 16 16" fill="none" xmlns="http://www.w3.org/2000/svg">
<g clip-path="url(#clip0_10_2520)">
<path d="M6.97266 15.037L5.44765 14.5342C5.28765 14.4831 5.19765 14.2927 5.24265 14.1109L8.65516 0.752939C8.70016 0.571121 8.86766 0.468848 9.02766 0.519984L10.5527 1.02283C10.7127 1.07396 10.8027 1.2643 10.7577 1.44612L7.34516 14.8041C7.29766 14.9859 7.13266 15.091 6.97266 15.037ZM4.12265 11.8495L5.21015 10.5313C5.32515 10.3921 5.31765 10.1706 5.19015 10.0427L2.92514 7.77851L5.19015 5.5143C5.31765 5.38646 5.32765 5.16487 5.21015 5.02567L4.12265 3.70748C4.01015 3.57112 3.82015 3.5626 3.69765 3.69328L0.095137 7.52851C-0.0323634 7.66203 -0.0323634 7.89214 0.095137 8.02567L3.69765 11.8637C3.82015 11.9944 4.01015 11.9887 4.12265 11.8495ZM12.3027 11.8666L15.9052 8.02851C16.0327 7.89498 16.0327 7.66487 15.9052 7.53135L12.3027 3.69044C12.1827 3.5626 11.9927 3.56828 11.8777 3.70464L10.7902 5.02282C10.6752 5.16203 10.6827 5.38362 10.8102 5.51146L13.0752 7.77851L10.8102 10.0427C10.6827 10.1706 10.6727 10.3921 10.7902 10.5313L11.8777 11.8495C11.9902 11.9887 12.1802 11.9944 12.3027 11.8666Z" fill="black"/>
</g>
<defs>
<clipPath id="clip0_10_2520">
<rect width="16" height="14.5455" fill="white" transform="translate(0 0.505127)"/>
</clipPath>
</defs>
</svg>
