<svg width="16" height="17" viewBox="0 0 16 17" fill="none" xmlns="http://www.w3.org/2000/svg">
<path d="M14.3652 9.91024C14.5096 9.16062 14.5096 8.39505 14.3652 7.64542L15.7982 6.85326C15.9649 6.76288 16.0371 6.57681 15.9815 6.40136C15.6094 5.253 14.9706 4.21097 14.1375 3.3497C14.0098 3.21679 13.8042 3.18489 13.6376 3.27527L12.2046 4.06743C11.5992 3.57299 10.9049 3.19021 10.1551 2.93502V1.3507C10.1551 1.16994 10.0218 1.01045 9.83848 0.973233C8.59987 0.707409 7.33904 0.718042 6.16153 0.973233C5.97823 1.01045 5.84493 1.16994 5.84493 1.3507V2.93502C5.0951 3.19021 4.40081 3.57299 3.79539 4.06743L2.36238 3.27527C2.20131 3.18489 1.99025 3.21679 1.8625 3.3497C1.02935 4.21097 0.390608 5.253 0.0184698 6.40136C-0.0370733 6.57681 0.0406864 6.76288 0.201761 6.85326L1.63477 7.64542C1.49036 8.39505 1.49036 9.16062 1.63477 9.91024L0.201761 10.7024C0.0351321 10.7928 -0.0370733 10.9789 0.0184698 11.1543C0.390608 12.3027 1.02935 13.3394 1.8625 14.206C1.99025 14.3389 2.19576 14.3708 2.36238 14.2804L3.79539 13.4882C4.40081 13.9827 5.0951 14.3655 5.84493 14.6206V16.205C5.84493 16.3857 5.97823 16.5452 6.16153 16.5824C7.40014 16.8483 8.66096 16.8376 9.83848 16.5824C10.0218 16.5452 10.1551 16.3857 10.1551 16.205V14.6206C10.9049 14.3655 11.5992 13.9827 12.2046 13.4882L13.6376 14.2804C13.7987 14.3708 14.0098 14.3389 14.1375 14.206C14.9706 13.3447 15.6094 12.3027 15.9815 11.1543C16.0371 10.9789 15.9593 10.7928 15.7982 10.7024L14.3652 9.91024ZM8.00556 11.3563C6.517 11.3563 5.31172 10.1973 5.31172 8.77783C5.31172 7.35833 6.52256 6.19934 8.00556 6.19934C9.48855 6.19934 10.6994 7.35833 10.6994 8.77783C10.6994 10.1973 9.49411 11.3563 8.00556 11.3563Z" fill="black"/>
</svg>
