<svg width="17" height="17" viewBox="0 0 17 17" fill="none" xmlns="http://www.w3.org/2000/svg">
<g clip-path="url(#clip0_3_1024)">
<path d="M4.19437 10.0156L3.63744 12.0947L1.60184 12.1378C0.9935 11.0095 0.648438 9.71848 0.648438 8.34661C0.648438 7.02001 0.971063 5.76901 1.54294 4.66748H1.54337L3.35562 4.99973L4.1495 6.80111C3.98334 7.28551 3.89278 7.80551 3.89278 8.34661C3.89284 8.93386 3.99922 9.49651 4.19437 10.0156Z" fill="#FBBB00"/>
<path d="M16.5087 6.85205C16.6006 7.33599 16.6485 7.83577 16.6485 8.34655C16.6485 8.9193 16.5883 9.47799 16.4735 10.0169C16.0841 11.8507 15.0665 13.4521 13.6568 14.5852L13.6564 14.5848L11.3738 14.4683L11.0507 12.4516C11.9861 11.9031 12.7171 11.0446 13.1022 10.0169H8.82434V6.85205H13.1646H16.5087Z" fill="#518EF8"/>
<path d="M13.6581 14.5848L13.6586 14.5853C12.2876 15.6872 10.546 16.3466 8.65023 16.3466C5.60364 16.3466 2.95486 14.6437 1.60364 12.1378L4.19617 10.0156C4.87176 11.8187 6.61111 13.1022 8.65023 13.1022C9.5267 13.1022 10.3478 12.8653 11.0524 12.4517L13.6581 14.5848Z" fill="#28B446"/>
<path d="M13.7573 2.18843L11.1656 4.31018C10.4364 3.85437 9.57441 3.59105 8.65091 3.59105C6.56563 3.59105 4.79375 4.93346 4.152 6.80118L1.54585 4.66755H1.54541C2.87685 2.10052 5.55903 0.34668 8.65091 0.34668C10.592 0.34668 12.3718 1.03812 13.7573 2.18843Z" fill="#F14336"/>
</g>
<defs>
<clipPath id="clip0_3_1024">
<rect width="16" height="16" fill="white" transform="translate(0.648438 0.34668)"/>
</clipPath>
</defs>
</svg>
