<svg width="19" height="19" viewBox="0 0 19 19" fill="none" xmlns="http://www.w3.org/2000/svg">
<rect x="0.5" y="0.740723" width="18" height="18" rx="9" fill="#0066FF"/>
<path d="M9.50305 5.02957V5.63831C9.50305 6.16213 9.40496 6.24705 9.06674 6.43119L5.91553 8.03096V8.10178L9.05244 9.67334C9.40496 9.85728 9.50305 9.9282 9.50305 10.4662V11.1457C9.50305 11.5704 9.36204 11.712 8.99624 11.5139L4.25511 8.90866C3.97412 8.75303 3.875 8.6397 3.875 8.31423V7.86112C3.875 7.53545 3.97412 7.40802 4.25511 7.25238L8.99624 4.66138C9.36204 4.46324 9.50305 4.60477 9.50305 5.02957Z" fill="white"/>
<path d="M10.0038 7.26897L14.7306 9.85987C15.0259 10.0156 15.125 10.1288 15.125 10.4544V10.9075C15.125 11.2473 15.0259 11.3605 14.7306 11.5162L10.0038 14.1071C9.62368 14.3054 9.49698 14.1639 9.49698 13.7391V13.1303C9.49698 12.6065 9.59507 12.5215 9.93329 12.3516L13.0845 10.7518V10.6669L9.94759 9.09529C9.59507 8.92546 9.49698 8.84043 9.49698 8.30241V7.62285C9.49698 7.19806 9.62368 7.05663 10.0038 7.26897Z" fill="white"/>
</svg>
