<svg width="16" height="16" viewBox="0 0 16 16" fill="none" xmlns="http://www.w3.org/2000/svg">
<path d="M14.2219 9.57284C14.2219 9.57284 12.4441 12.2049 12.4441 13.2092C12.4441 14.2135 13.2402 15.0274 14.2219 15.0274C15.2036 15.0274 15.9997 14.2135 15.9997 13.2092C15.9997 12.2049 14.2219 9.57284 14.2219 9.57284ZM13.9616 6.64841L8.19243 0.748127C8.01882 0.57057 7.79131 0.481934 7.56381 0.481934C7.33631 0.481934 7.10881 0.57057 6.93548 0.748127L4.66936 3.06574L2.27546 0.617161C2.10185 0.439604 1.82046 0.439604 1.64712 0.617161L1.01878 1.25977C0.845451 1.43733 0.845451 1.72512 1.01878 1.90239L3.41296 4.35068L0.780728 7.04273C-0.260665 8.1075 -0.260665 9.83421 0.780728 10.8993L4.03602 14.2285C4.55658 14.7609 5.23908 15.0274 5.92131 15.0274C6.60381 15.0274 7.28603 14.7612 7.80659 14.2285L13.9613 7.93392C14.3086 7.57881 14.3086 7.00352 13.9616 6.64841ZM10.7333 8.6646H1.83101C1.86879 8.55551 1.93018 8.4379 2.0374 8.32852L2.40268 7.95494L4.66963 5.63648L6.29742 7.30125C6.64437 7.65608 7.20715 7.65608 7.55409 7.30125C7.90104 6.94642 7.90104 6.37085 7.55409 6.01602L5.92631 4.35125L7.56381 2.67654L12.0761 7.29131L10.7333 8.6646Z" fill="#0066FF"/>
</svg>
